<?xml version="1.0" standalone="no"?>
<!DOCTYPE svg PUBLIC "-//W3C//DTD SVG 20010904//EN"
 "http://www.w3.org/TR/2001/REC-SVG-20010904/DTD/svg10.dtd">
<svg version="1.0" xmlns="http://www.w3.org/2000/svg"
 width="1200.000000pt" height="1200.000000pt" viewBox="0 0 1200.000000 1200.000000"
 preserveAspectRatio="xMidYMid meet">
<metadata>
Created by potrace 1.14, written by Peter Selinger 2001-2017
</metadata>
<g transform="translate(0.000000,1200.000000) scale(0.100000,-0.100000)"
fill="#000000" stroke="none">
<path d="M5980 10168 c-14 -5 -148 -148 -298 -317 -151 -169 -286 -321 -301
-337 -14 -16 -66 -74 -116 -129 -49 -55 -123 -138 -165 -185 -42 -47 -116
-130 -165 -185 -48 -55 -100 -112 -114 -126 -14 -15 -37 -39 -50 -55 -22 -26
-232 -261 -302 -339 -15 -16 -36 -39 -46 -51 -23 -27 -163 -183 -183 -204 -8
-9 -49 -54 -90 -100 -41 -47 -79 -90 -85 -96 -19 -21 -146 -162 -163 -182 -20
-22 -158 -176 -182 -202 -8 -9 -44 -50 -80 -91 -36 -41 -72 -81 -81 -89 -8 -8
-49 -53 -90 -100 -41 -46 -83 -94 -94 -106 -31 -33 -157 -173 -188 -210 -16
-18 -43 -48 -60 -67 -18 -19 -59 -64 -91 -101 -33 -37 -71 -80 -85 -95 -14
-16 -57 -63 -96 -106 -38 -43 -79 -89 -90 -101 -11 -12 -45 -50 -75 -84 -77
-87 -89 -99 -145 -162 -27 -30 -79 -88 -115 -128 -36 -40 -86 -96 -112 -124
-46 -49 -50 -58 -50 -91 0 -42 0 -42 97 -151 12 -12 48 -53 80 -90 33 -37 69
-76 80 -88 11 -12 52 -57 90 -101 39 -44 73 -82 76 -85 5 -4 133 -147 215
-240 12 -14 40 -45 62 -70 23 -25 53 -58 68 -75 14 -16 45 -50 68 -75 22 -25
70 -79 106 -120 36 -41 72 -81 80 -90 8 -9 47 -51 85 -94 39 -43 81 -91 95
-106 27 -29 142 -158 169 -188 29 -34 145 -164 171 -192 14 -15 57 -63 95
-106 88 -98 149 -166 199 -221 21 -23 45 -52 53 -63 l14 -20 -1211 0 -1210 0
2 -702 3 -702 1838 0 1838 -1 47 -50 c42 -44 189 -207 381 -424 86 -96 119
-126 142 -127 17 -1 99 81 225 226 21 25 50 57 64 71 14 14 56 61 95 105 38
43 84 95 102 114 17 19 41 46 53 60 l22 25 1831 2 c1008 0 1838 2 1845 2 9 1
12 148 12 701 l0 700 -1211 2 -1211 3 22 25 c12 14 38 43 58 65 20 22 71 78
112 125 123 139 134 151 165 184 17 18 59 66 95 106 36 41 76 85 90 100 14 14
40 44 59 66 27 31 123 138 186 208 15 16 165 185 200 224 17 19 41 46 55 61
29 32 167 185 193 215 10 12 35 39 55 62 20 22 66 73 102 114 36 40 76 85 90
100 14 15 54 60 90 100 58 66 119 133 188 209 51 56 128 145 138 160 26 40 4
86 -86 181 -8 8 -69 76 -135 150 -66 74 -124 140 -130 146 -15 16 -143 160
-205 229 -30 33 -56 62 -59 65 -4 3 -36 39 -71 79 -36 41 -78 89 -94 105 -15
17 -51 58 -80 90 -28 33 -62 71 -76 86 -14 14 -56 62 -95 105 -38 43 -81 90
-94 104 -13 14 -49 55 -80 90 -31 35 -63 71 -72 80 -8 9 -89 99 -180 201 -90
102 -168 190 -174 196 -5 6 -40 44 -76 85 -37 41 -77 86 -90 100 -13 14 -49
54 -79 88 -30 35 -64 73 -76 85 -11 11 -56 61 -100 110 -43 50 -86 97 -94 106
-8 9 -42 47 -75 84 -33 38 -71 81 -85 96 -14 15 -56 63 -95 105 -38 43 -81 90
-93 104 -13 14 -47 53 -75 85 -29 33 -63 71 -77 85 -14 14 -54 59 -90 100 -36
41 -76 86 -90 101 -14 14 -50 54 -80 89 -30 35 -71 80 -90 101 -19 21 -62 68
-95 106 -33 37 -71 79 -84 93 -13 14 -53 59 -90 100 -145 163 -256 287 -278
311 -13 14 -47 53 -76 86 -65 77 -93 95 -127 82z m49 -196 c29 -31 185 -205
216 -241 11 -13 31 -36 45 -51 33 -36 147 -164 172 -192 11 -13 38 -43 61 -68
23 -25 74 -81 112 -125 39 -44 79 -89 90 -101 11 -11 52 -56 90 -100 39 -43
83 -92 98 -108 15 -16 45 -50 67 -76 22 -26 52 -60 67 -76 15 -16 57 -63 93
-104 36 -40 79 -88 95 -106 17 -18 55 -60 85 -95 30 -34 62 -70 70 -78 9 -9
49 -54 90 -101 41 -47 96 -107 121 -135 25 -27 64 -70 85 -95 21 -24 48 -54
59 -66 11 -11 47 -51 80 -89 33 -37 72 -80 86 -96 14 -15 52 -58 85 -95 32
-37 70 -79 84 -94 14 -15 50 -55 80 -89 30 -35 69 -78 85 -95 17 -18 55 -61
85 -96 30 -34 71 -80 90 -101 19 -21 64 -71 100 -111 36 -40 83 -93 106 -118
22 -25 56 -63 75 -84 19 -21 48 -54 64 -72 17 -18 55 -60 85 -95 30 -34 64
-72 75 -85 11 -12 52 -57 90 -100 39 -42 81 -89 94 -103 13 -14 44 -50 70 -80
25 -30 53 -61 62 -70 9 -9 58 -63 109 -121 52 -58 99 -110 104 -116 50 -53
121 -138 121 -144 0 -6 -67 -86 -144 -169 -47 -52 -152 -170 -172 -192 -26
-30 -145 -162 -184 -205 -16 -18 -55 -61 -85 -95 -30 -34 -64 -72 -75 -85 -11
-12 -31 -35 -45 -50 -145 -164 -219 -245 -250 -279 -20 -22 -58 -65 -85 -95
-51 -58 -175 -197 -212 -237 -12 -13 -50 -56 -85 -95 -35 -39 -68 -76 -73 -82
-6 -6 -66 -74 -135 -151 -69 -77 -138 -155 -155 -174 -16 -18 -39 -43 -50 -55
-11 -12 -47 -53 -80 -90 -111 -126 -99 -117 -160 -114 l-54 3 30 35 c27 30 88
99 206 230 18 19 40 44 50 56 22 25 146 164 188 209 17 18 59 66 95 106 36 40
74 83 85 95 11 12 37 41 59 65 88 100 173 194 196 219 14 15 48 54 77 87 29
33 65 73 80 90 16 17 60 66 98 109 39 42 89 98 112 123 23 25 51 57 63 71 72
83 142 162 191 215 31 33 75 82 98 109 23 27 48 54 54 61 7 7 41 45 77 85 36
40 74 82 85 95 62 68 75 86 75 102 0 18 -11 31 -143 177 -40 43 -85 95 -102
114 -16 19 -42 48 -56 63 -14 15 -52 58 -85 95 -32 36 -72 81 -89 99 -16 18
-59 65 -95 106 -36 40 -76 84 -89 98 -13 14 -42 48 -65 74 -22 27 -57 65 -76
86 -19 20 -62 67 -94 104 -33 38 -71 81 -85 96 -40 43 -174 191 -194 215 -10
12 -48 54 -85 95 -37 41 -71 79 -77 85 -5 6 -64 72 -130 146 -66 74 -136 153
-155 174 -48 53 -45 50 -130 146 -41 46 -82 91 -90 100 -8 9 -44 49 -80 89
-72 81 -74 84 -180 201 -93 103 -93 103 -160 180 -30 35 -62 70 -71 79 -9 9
-74 81 -144 161 -71 80 -132 147 -135 150 -6 6 -68 75 -165 185 -38 43 -75 83
-80 89 -6 6 -64 72 -130 146 -66 74 -123 137 -126 140 -3 3 -45 50 -94 105
-158 179 -238 265 -247 265 -10 0 -54 -44 -122 -124 -28 -31 -61 -69 -75 -84
-14 -15 -57 -63 -96 -106 -38 -44 -74 -84 -80 -90 -45 -50 -187 -208 -215
-240 -19 -22 -42 -47 -50 -55 -8 -9 -49 -54 -89 -101 -41 -47 -92 -103 -112
-125 -21 -22 -47 -51 -58 -64 -29 -33 -153 -172 -171 -191 -8 -9 -64 -72 -125
-140 -60 -69 -116 -132 -125 -140 -8 -8 -33 -35 -55 -60 -46 -53 -158 -179
-195 -220 -14 -15 -56 -63 -95 -106 -38 -43 -92 -103 -120 -134 -27 -30 -54
-59 -60 -66 -5 -6 -39 -43 -74 -82 -35 -39 -71 -80 -80 -90 -38 -44 -137 -156
-156 -176 -42 -46 -164 -182 -185 -205 -11 -14 -51 -59 -89 -100 -37 -42 -92
-103 -121 -136 -30 -33 -59 -65 -64 -71 -6 -6 -36 -39 -66 -74 -30 -34 -68
-77 -85 -95 -16 -18 -43 -48 -60 -67 -58 -66 -170 -191 -195 -218 -14 -15 -41
-45 -60 -67 -38 -43 -170 -191 -210 -234 -14 -15 -50 -56 -80 -90 -30 -35 -62
-70 -70 -79 -25 -25 -11 -51 77 -146 45 -49 91 -100 102 -113 22 -25 128 -144
206 -231 28 -31 77 -86 110 -124 33 -37 76 -85 95 -105 19 -21 58 -64 85 -95
28 -32 64 -73 80 -91 27 -29 132 -146 174 -193 9 -11 47 -53 84 -94 37 -42 76
-85 85 -96 9 -10 49 -54 87 -98 39 -43 88 -98 110 -123 48 -54 40 -46 140
-156 103 -114 110 -121 175 -195 30 -35 66 -75 80 -90 14 -15 53 -58 86 -96
34 -38 78 -87 97 -109 l36 -40 -57 -3 c-40 -2 -59 1 -67 11 -5 8 -41 48 -78
89 -37 42 -77 86 -88 99 -11 13 -41 46 -67 74 -26 28 -74 82 -107 119 -33 38
-73 82 -88 99 -16 17 -56 62 -90 100 -34 38 -71 79 -82 91 -11 13 -49 55 -85
96 -36 40 -74 82 -85 94 -26 29 -151 168 -173 193 -53 61 -140 159 -162 182
-14 14 -54 60 -90 101 -36 41 -70 80 -76 85 -6 6 -35 37 -64 70 -65 74 -175
197 -215 241 -16 18 -55 60 -85 95 -30 34 -66 74 -80 90 -14 15 -56 62 -95
105 -38 42 -80 89 -93 102 -12 14 -22 28 -22 31 0 3 14 22 31 41 43 49 159
178 190 212 15 16 53 59 85 95 33 37 82 92 109 122 28 30 60 66 72 80 56 64
78 89 117 131 64 70 125 138 201 225 39 43 84 94 101 112 17 19 53 58 79 89
26 30 60 67 74 83 14 15 51 56 81 90 30 35 71 80 90 101 19 21 62 68 95 106
33 37 77 86 97 108 20 23 45 50 55 62 10 11 50 56 90 100 39 43 81 90 92 103
27 31 141 158 166 185 11 12 52 57 90 101 39 44 79 89 90 101 11 11 47 51 80
89 33 37 77 87 98 109 21 23 57 62 78 88 22 25 54 61 72 80 18 19 55 60 82 92
28 31 66 74 85 95 36 40 151 168 183 205 10 12 49 55 87 96 38 41 77 84 87 96
34 40 138 157 163 184 14 15 57 62 95 105 39 43 75 83 80 89 21 23 332 372
355 399 13 15 26 27 28 27 3 0 17 -12 31 -28z m77 -318 c39 -43 111 -124 160
-179 49 -55 93 -105 99 -111 5 -6 42 -46 80 -90 39 -43 77 -85 85 -94 16 -17
139 -155 186 -208 16 -19 45 -51 64 -71 19 -21 62 -68 95 -105 32 -37 68 -78
80 -90 11 -12 47 -53 80 -91 33 -37 65 -73 70 -79 17 -17 178 -197 211 -235
16 -18 40 -45 54 -60 14 -15 54 -60 90 -100 36 -41 76 -86 90 -101 14 -15 54
-60 90 -100 36 -40 76 -85 90 -100 14 -16 50 -56 80 -90 30 -35 66 -75 80 -90
31 -33 142 -157 167 -186 10 -12 47 -54 83 -94 36 -40 72 -81 80 -90 8 -10 38
-42 65 -72 28 -30 75 -82 105 -117 30 -35 71 -80 90 -100 19 -21 49 -53 65
-73 17 -19 53 -60 80 -90 28 -30 67 -75 89 -99 60 -68 168 -189 196 -219 14
-15 50 -55 80 -89 30 -35 66 -75 80 -90 14 -15 57 -62 95 -106 39 -43 79 -89
90 -101 22 -24 69 -78 99 -112 21 -24 24 -20 -100 -157 -35 -38 -71 -79 -81
-91 -29 -34 -145 -163 -178 -198 -16 -18 -59 -65 -95 -106 -36 -41 -72 -81
-80 -90 -8 -9 -42 -47 -75 -84 -33 -38 -69 -78 -80 -90 -11 -13 -54 -60 -95
-106 -41 -46 -82 -91 -90 -100 -8 -9 -46 -51 -85 -95 -38 -44 -79 -89 -90
-101 -11 -12 -47 -52 -80 -89 -95 -107 -114 -128 -148 -165 -18 -19 -66 -73
-107 -120 -41 -47 -79 -90 -85 -96 -5 -6 -39 -44 -75 -84 -36 -40 -74 -83 -85
-94 -11 -12 -38 -42 -60 -67 -46 -52 -180 -202 -211 -236 l-21 -23 -1434 0
-1435 0 -41 48 c-23 26 -54 61 -70 78 -39 42 -162 179 -273 304 -94 106 -168
188 -310 346 -19 22 -69 77 -110 124 -41 46 -86 96 -100 111 -14 15 -47 53
-75 84 -27 32 -55 63 -60 69 -6 6 -71 79 -145 161 -74 83 -150 168 -170 189
-47 53 -65 72 -137 153 -34 38 -75 85 -93 104 -54 60 -83 92 -155 173 -81 92
-163 183 -186 207 -17 17 -19 14 69 114 15 17 65 73 111 125 46 52 93 105 105
116 11 12 40 43 63 70 22 27 52 61 65 75 84 93 146 162 263 293 11 13 54 60
95 106 92 101 81 89 165 184 39 44 77 87 85 96 8 9 47 51 85 94 39 43 81 91
95 106 14 15 57 63 95 106 39 43 94 106 124 139 30 33 73 81 95 106 23 25 75
83 116 129 41 45 82 91 90 100 56 64 138 157 155 174 27 29 186 206 205 230 8
10 25 28 36 40 12 11 61 66 109 121 49 55 103 116 120 135 40 43 126 139 225
249 41 46 80 89 85 95 6 6 42 47 80 90 39 44 83 93 98 110 16 17 52 57 80 90
29 32 66 73 82 91 25 26 100 111 175 195 69 78 158 177 173 193 18 18 19 18
35 -1 9 -10 49 -55 88 -98z m-349 -7260 c16 -17 60 -65 98 -108 104 -116 134
-146 144 -146 5 0 23 15 40 33 66 71 99 107 163 179 l68 75 50 -1 c28 0 50 -5
51 -9 0 -7 -76 -95 -156 -181 -16 -18 -59 -66 -95 -106 -36 -41 -77 -87 -93
-104 l-27 -31 -36 40 c-19 22 -61 69 -92 104 -31 36 -61 69 -67 75 -79 85
-185 204 -185 207 0 3 25 4 55 4 48 0 58 -4 82 -31z m411 25 c-2 -4 -31 -39
-66 -78 -35 -39 -72 -81 -82 -93 l-18 -23 -35 40 c-19 22 -58 65 -86 95 -28
30 -51 58 -51 61 0 3 77 6 170 5 94 0 169 -3 168 -7z"/>
<path d="M5918 7518 c-18 -3 -53 -9 -78 -12 -25 -3 -70 -12 -102 -20 -31 -9
-67 -17 -80 -20 -70 -13 -234 -96 -328 -166 -157 -117 -289 -293 -331 -440 -7
-25 -14 -49 -15 -55 -11 -34 -20 -97 -19 -137 0 -27 -3 -48 -6 -48 -3 0 -5
-12 -3 -27 2 -16 7 -61 9 -102 3 -41 10 -82 16 -92 5 -11 8 -19 5 -19 -8 0 16
-75 45 -137 95 -208 318 -395 611 -512 40 -16 91 -37 113 -47 22 -10 45 -19
50 -20 28 -8 253 -102 340 -142 160 -75 203 -129 189 -233 -11 -75 -50 -120
-137 -156 -43 -17 -74 -21 -184 -22 -73 -1 -141 2 -151 8 -10 5 -31 11 -47 14
-17 2 -37 6 -45 10 -8 3 -33 11 -55 18 -64 19 -225 103 -311 161 -43 30 -85
58 -91 62 -14 8 -35 -11 -98 -88 -22 -27 -67 -81 -100 -120 -33 -40 -78 -94
-100 -121 -22 -26 -56 -67 -75 -90 -19 -23 -47 -57 -63 -75 l-27 -34 23 -21
c63 -56 127 -105 136 -105 6 0 11 -3 11 -7 0 -5 10 -13 23 -19 12 -6 62 -34
110 -62 49 -29 93 -52 98 -52 5 0 28 -9 52 -19 113 -51 332 -114 442 -126 33
-4 80 -10 105 -14 25 -4 100 -6 165 -5 114 3 137 4 230 19 57 9 245 55 264 65
9 5 47 23 86 41 38 18 76 38 83 46 7 7 18 13 23 13 15 0 158 113 200 157 48
51 119 147 119 161 0 7 3 12 8 12 12 0 81 157 87 200 3 14 11 54 19 90 14 64
15 253 1 330 -17 96 -55 205 -87 252 -10 14 -18 31 -18 37 0 6 -4 11 -9 11 -5
0 -12 9 -16 19 -6 21 -172 191 -186 191 -4 0 -29 14 -54 31 -65 44 -160 89
-305 144 -242 91 -568 227 -584 242 -4 4 -12 8 -16 8 -16 0 -90 76 -91 93 0
16 -6 53 -11 69 -6 20 26 83 55 110 73 66 195 89 372 70 127 -14 295 -78 408
-156 47 -32 97 -49 97 -33 0 5 24 39 53 74 28 36 66 82 82 103 40 51 202 255
220 278 8 9 15 21 15 26 0 17 -159 142 -250 197 -50 29 -93 54 -96 54 -3 0
-29 11 -58 24 -29 13 -73 30 -97 36 -24 7 -52 16 -61 21 -10 5 -28 9 -41 9
-13 0 -28 5 -35 12 -7 7 -12 9 -12 6 0 -3 -17 -1 -37 4 -110 28 -370 44 -455
26z"/>
</g>
</svg>
